<svg xmlns="http://www.w3.org/2000/svg" version="1.1" xmlns:xlink="http://www.w3.org/1999/xlink" xmlns:svgjs="http://svgjs.dev/svgjs" viewBox="0 0 800 800"><g fill="none" stroke-width="3" stroke="hsl(335, 77%, 50%)" stroke-linecap="round"><line x1="740.5" y1="400" x2="59.5" y2="400" transform="rotate(0, 400, 400)" opacity="0.79"></line><line x1="351" y1="400" x2="449" y2="400" transform="rotate(4, 400, 400)" opacity="0.25"></line><line x1="557" y1="400" x2="243" y2="400" transform="rotate(8, 400, 400)" opacity="0.20"></line><line x1="616.5" y1="400" x2="183.5" y2="400" transform="rotate(12, 400, 400)" opacity="0.84"></line><line x1="405.5" y1="400" x2="394.5" y2="400" transform="rotate(16, 400, 400)" opacity="0.35"></line><line x1="374" y1="400" x2="426" y2="400" transform="rotate(20, 400, 400)" opacity="0.44"></line><line x1="42" y1="400" x2="758" y2="400" transform="rotate(24, 400, 400)" opacity="0.99"></line><line x1="91.5" y1="400" x2="708.5" y2="400" transform="rotate(28, 400, 400)" opacity="0.98"></line><line x1="442" y1="400" x2="358" y2="400" transform="rotate(32, 400, 400)" opacity="0.91"></line><line x1="178.5" y1="400" x2="621.5" y2="400" transform="rotate(36, 400, 400)" opacity="0.57"></line><line x1="614" y1="400" x2="186" y2="400" transform="rotate(40, 400, 400)" opacity="0.75"></line><line x1="338.5" y1="400" x2="461.5" y2="400" transform="rotate(44, 400, 400)" opacity="0.97"></line><line x1="470.5" y1="400" x2="329.5" y2="400" transform="rotate(48, 400, 400)" opacity="0.88"></line><line x1="446.5" y1="400" x2="353.5" y2="400" transform="rotate(52, 400, 400)" opacity="0.99"></line><line x1="317.5" y1="400" x2="482.5" y2="400" transform="rotate(56, 400, 400)" opacity="0.68"></line><line x1="725" y1="400" x2="75" y2="400" transform="rotate(60, 400, 400)" opacity="0.48"></line><line x1="516" y1="400" x2="284" y2="400" transform="rotate(64, 400, 400)" opacity="0.59"></line><line x1="47" y1="400" x2="753" y2="400" transform="rotate(68, 400, 400)" opacity="0.28"></line><line x1="78.5" y1="400" x2="721.5" y2="400" transform="rotate(72, 400, 400)" opacity="0.77"></line><line x1="99" y1="400" x2="701" y2="400" transform="rotate(76, 400, 400)" opacity="0.46"></line><line x1="621.5" y1="400" x2="178.5" y2="400" transform="rotate(80, 400, 400)" opacity="0.20"></line><line x1="508" y1="400" x2="292" y2="400" transform="rotate(84, 400, 400)" opacity="0.22"></line><line x1="495.5" y1="400" x2="304.5" y2="400" transform="rotate(88, 400, 400)" opacity="0.24"></line><line x1="325.5" y1="400" x2="474.5" y2="400" transform="rotate(92, 400, 400)" opacity="0.38"></line><line x1="639" y1="400" x2="161" y2="400" transform="rotate(96, 400, 400)" opacity="0.80"></line><line x1="207" y1="400" x2="593" y2="400" transform="rotate(100, 400, 400)" opacity="0.20"></line><line x1="497.5" y1="400" x2="302.5" y2="400" transform="rotate(104, 400, 400)" opacity="0.43"></line><line x1="339.5" y1="400" x2="460.5" y2="400" transform="rotate(108, 400, 400)" opacity="0.11"></line><line x1="318" y1="400" x2="482" y2="400" transform="rotate(112, 400, 400)" opacity="0.79"></line><line x1="669.5" y1="400" x2="130.5" y2="400" transform="rotate(116, 400, 400)" opacity="0.14"></line><line x1="74" y1="400" x2="726" y2="400" transform="rotate(120, 400, 400)" opacity="0.39"></line><line x1="43.5" y1="400" x2="756.5" y2="400" transform="rotate(124, 400, 400)" opacity="0.68"></line><line x1="668.5" y1="400" x2="131.5" y2="400" transform="rotate(128, 400, 400)" opacity="0.40"></line><line x1="669" y1="400" x2="131" y2="400" transform="rotate(132, 400, 400)" opacity="0.28"></line><line x1="362.5" y1="400" x2="437.5" y2="400" transform="rotate(136, 400, 400)" opacity="0.62"></line><line x1="600.5" y1="400" x2="199.5" y2="400" transform="rotate(140, 400, 400)" opacity="0.42"></line><line x1="428.5" y1="400" x2="371.5" y2="400" transform="rotate(144, 400, 400)" opacity="0.29"></line><line x1="460" y1="400" x2="340" y2="400" transform="rotate(148, 400, 400)" opacity="0.75"></line><line x1="207" y1="400" x2="593" y2="400" transform="rotate(152, 400, 400)" opacity="0.74"></line><line x1="254" y1="400" x2="546" y2="400" transform="rotate(156, 400, 400)" opacity="0.15"></line><line x1="75" y1="400" x2="725" y2="400" transform="rotate(160, 400, 400)" opacity="0.77"></line><line x1="64.5" y1="400" x2="735.5" y2="400" transform="rotate(164, 400, 400)" opacity="0.49"></line><line x1="595" y1="400" x2="205" y2="400" transform="rotate(168, 400, 400)" opacity="0.62"></line><line x1="91" y1="400" x2="709" y2="400" transform="rotate(172, 400, 400)" opacity="0.97"></line><line x1="635.5" y1="400" x2="164.5" y2="400" transform="rotate(176, 400, 400)" opacity="0.71"></line><line x1="220.5" y1="400" x2="579.5" y2="400" transform="rotate(180, 400, 400)" opacity="1.00"></line><line x1="613" y1="400" x2="187" y2="400" transform="rotate(184, 400, 400)" opacity="0.40"></line><line x1="68.5" y1="400" x2="731.5" y2="400" transform="rotate(188, 400, 400)" opacity="0.34"></line><line x1="368.5" y1="400" x2="431.5" y2="400" transform="rotate(192, 400, 400)" opacity="0.78"></line><line x1="540.5" y1="400" x2="259.5" y2="400" transform="rotate(196, 400, 400)" opacity="0.45"></line><line x1="566" y1="400" x2="234" y2="400" transform="rotate(200, 400, 400)" opacity="0.78"></line><line x1="628" y1="400" x2="172" y2="400" transform="rotate(204, 400, 400)" opacity="0.75"></line><line x1="301.5" y1="400" x2="498.5" y2="400" transform="rotate(208, 400, 400)" opacity="0.21"></line><line x1="599" y1="400" x2="201" y2="400" transform="rotate(212, 400, 400)" opacity="0.79"></line><line x1="35" y1="400" x2="765" y2="400" transform="rotate(216, 400, 400)" opacity="0.98"></line><line x1="64.5" y1="400" x2="735.5" y2="400" transform="rotate(220, 400, 400)" opacity="0.21"></line><line x1="646" y1="400" x2="154" y2="400" transform="rotate(224, 400, 400)" opacity="0.83"></line><line x1="105.5" y1="400" x2="694.5" y2="400" transform="rotate(228, 400, 400)" opacity="0.92"></line><line x1="478.5" y1="400" x2="321.5" y2="400" transform="rotate(232, 400, 400)" opacity="0.69"></line><line x1="256.5" y1="400" x2="543.5" y2="400" transform="rotate(236, 400, 400)" opacity="0.33"></line><line x1="677" y1="400" x2="123" y2="400" transform="rotate(240, 400, 400)" opacity="0.93"></line><line x1="138" y1="400" x2="662" y2="400" transform="rotate(244, 400, 400)" opacity="0.62"></line><line x1="566" y1="400" x2="234" y2="400" transform="rotate(248, 400, 400)" opacity="0.70"></line><line x1="81" y1="400" x2="719" y2="400" transform="rotate(252, 400, 400)" opacity="0.71"></line><line x1="248.5" y1="400" x2="551.5" y2="400" transform="rotate(256, 400, 400)" opacity="0.20"></line><line x1="553.5" y1="400" x2="246.5" y2="400" transform="rotate(260, 400, 400)" opacity="0.39"></line><line x1="185.5" y1="400" x2="614.5" y2="400" transform="rotate(264, 400, 400)" opacity="0.65"></line><line x1="614" y1="400" x2="186" y2="400" transform="rotate(268, 400, 400)" opacity="0.10"></line><line x1="560" y1="400" x2="240" y2="400" transform="rotate(272, 400, 400)" opacity="0.79"></line><line x1="192" y1="400" x2="608" y2="400" transform="rotate(276, 400, 400)" opacity="0.76"></line><line x1="164" y1="400" x2="636" y2="400" transform="rotate(280, 400, 400)" opacity="0.93"></line><line x1="399.5" y1="400" x2="400.5" y2="400" transform="rotate(284, 400, 400)" opacity="0.63"></line><line x1="240.5" y1="400" x2="559.5" y2="400" transform="rotate(288, 400, 400)" opacity="0.95"></line><line x1="544.5" y1="400" x2="255.5" y2="400" transform="rotate(292, 400, 400)" opacity="0.28"></line><line x1="328" y1="400" x2="472" y2="400" transform="rotate(296, 400, 400)" opacity="0.55"></line><line x1="513.5" y1="400" x2="286.5" y2="400" transform="rotate(300, 400, 400)" opacity="0.13"></line><line x1="77.5" y1="400" x2="722.5" y2="400" transform="rotate(304, 400, 400)" opacity="0.31"></line><line x1="489.5" y1="400" x2="310.5" y2="400" transform="rotate(308, 400, 400)" opacity="0.22"></line><line x1="525.5" y1="400" x2="274.5" y2="400" transform="rotate(312, 400, 400)" opacity="0.13"></line><line x1="172.5" y1="400" x2="627.5" y2="400" transform="rotate(316, 400, 400)" opacity="0.32"></line><line x1="661" y1="400" x2="139" y2="400" transform="rotate(320, 400, 400)" opacity="0.50"></line><line x1="192.5" y1="400" x2="607.5" y2="400" transform="rotate(324, 400, 400)" opacity="0.68"></line><line x1="49.5" y1="400" x2="750.5" y2="400" transform="rotate(328, 400, 400)" opacity="0.12"></line><line x1="422.5" y1="400" x2="377.5" y2="400" transform="rotate(332, 400, 400)" opacity="0.44"></line><line x1="658" y1="400" x2="142" y2="400" transform="rotate(336, 400, 400)" opacity="0.36"></line><line x1="128.5" y1="400" x2="671.5" y2="400" transform="rotate(340, 400, 400)" opacity="0.90"></line><line x1="99" y1="400" x2="701" y2="400" transform="rotate(344, 400, 400)" opacity="0.68"></line><line x1="330.5" y1="400" x2="469.5" y2="400" transform="rotate(348, 400, 400)" opacity="0.86"></line></g></svg>